<?xml version="1.0" encoding="UTF-8" standalone="no"?>
<!-- Created with Inkscape (http://www.inkscape.org/) -->

<svg
   width="119.33304mm"
   height="136.07838mm"
   viewBox="0 0 119.33304 136.07838"
   version="1.1"
   id="svg1"
   inkscape:export-filename="curly-arrow.svg"
   inkscape:export-xdpi="25.541965"
   inkscape:export-ydpi="25.541965"
   xmlns:inkscape="http://www.inkscape.org/namespaces/inkscape"
   xmlns:sodipodi="http://sodipodi.sourceforge.net/DTD/sodipodi-0.dtd"
   xmlns="http://www.w3.org/2000/svg"
   xmlns:svg="http://www.w3.org/2000/svg"
   xmlns:rdf="http://www.w3.org/1999/02/22-rdf-syntax-ns#"
   xmlns:cc="http://creativecommons.org/ns#"
   xmlns:dc="http://purl.org/dc/elements/1.1/">
  <defs
     id="defs1">
    <linearGradient
       id="swatch2"
       inkscape:swatch="solid">
      <stop
         style="stop-color:#000000;stop-opacity:1;"
         offset="0"
         id="stop2" />
    </linearGradient>
  </defs>
  <sodipodi:namedview
     id="base"
     pagecolor="#ffffff"
     bordercolor="#000000"
     borderopacity="0.3"
     inkscape:pageopacity="0.0"
     inkscape:pageshadow="2"
     inkscape:zoom="0.35"
     inkscape:cx="400"
     inkscape:cy="560"
     inkscape:document-units="mm"
     inkscape:showpageshadow="2"
     inkscape:pagecheckerboard="0"
     inkscape:deskcolor="#d1d1d1">
    <inkscape:page
       x="-8.0908147e-15"
       y="0"
       width="119.33303"
       height="136.07838"
       id="page2"
       margin="0"
       bleed="0" />
  </sodipodi:namedview>
  <metadata
     id="metadata1">
    <rdf:RDF>
      <cc:Work
         rdf:about="">
        <dc:format>image/svg+xml</dc:format>
        <dc:type
           rdf:resource="http://purl.org/dc/dcmitype/StillImage" />
      </cc:Work>
    </rdf:RDF>
  </metadata>
  <path
     style="fill:#000000;fill-opacity:0;fill-rule:nonzero;stroke:#2961b3;stroke-width:5;stroke-dasharray:none;stroke-opacity:1"
     d="m 2.6284903,2.7419258 c 1.007935,0.251984 2.771825,1.763887 3.023809,0.755952 0.251984,-1.007936 -3.953082,-1.220589 -3.023809,-0.755952 3.556976,1.778487 6.422892,2.644931 9.8273787,3.779761 0.478107,0.159369 1.033798,-0.159369 1.511905,0 1.63721,0.545737 6.514648,1.745419 7.559525,2.267857 0.318735,0.15937 0.41788,0.643263 0.755951,0.755952 0.478108,0.159369 1.033799,-0.159369 1.511906,0 1.33549,0.445164 2.22355,1.8788062 3.779761,2.2678582 3.226601,0.806651 5.386324,2.315186 8.315476,3.779763 0.450762,0.22538 1.061143,-0.225383 1.511905,0 0.919152,0.459576 2.154611,1.077304 3.023809,1.511903 1.142064,0.571032 1.822223,2.62328 3.02381,3.023809 0.478107,0.159369 1.033798,-0.159369 1.511905,0 0.676143,0.225383 0.941729,1.084273 1.511904,1.511906 2.788531,2.091399 6.072163,3.792035 9.07143,5.291667 0.956212,0.478104 1.433046,1.600009 2.267855,2.267857 2.36926,1.895404 5.03031,4.027056 7.55952,5.291667 1.05036,0.525176 1.65471,2.962226 2.26786,3.779756 0.97417,1.2989 2.84435,2.37665 3.77976,3.77977 1.12414,1.6862 1.1945,3.68163 2.26786,5.29166 1.19289,1.78934 4.02868,5.53138 4.53571,7.55953 0.18335,0.73338 -0.23905,1.5507 0,2.26785 0.15378,0.46133 1.35813,1.80653 1.51191,2.26786 0.39588,1.18764 1.29801,14.03492 0.75595,15.11905 -0.11269,0.22538 -0.57777,-0.17818 -0.75595,0 -0.53454,0.53454 0.41933,1.63887 0,2.26786 -0.31255,0.46882 -1.19936,0.28713 -1.51191,0.75595 -0.57631,0.86446 -0.17964,2.15934 -0.75595,3.02381 -1.73068,2.59603 -8.92191,9.52625 -11.33928,11.33928 -8.707529,6.53065 -23.435203,8.126418 -34.017859,6.80357 -3.855641,-0.48195 -6.771402,-3.25434 -9.827382,-5.29166 -1.955302,-1.30354 -5.930765,-3.86561 -6.803572,-6.04762 -0.860671,-2.15168 -0.212358,-2.90493 -0.755952,-4.53572 -0.791477,-2.37443 -1.584822,-8.09672 -0.755952,-10.58333 0.112692,-0.33807 0.643261,-0.41788 0.755952,-0.75595 0.159369,-0.47811 -0.159369,-1.0338 0,-1.51191 0.112691,-0.33807 0.503968,-0.50396 0.755952,-0.75595 0.251986,-0.50397 0.619297,-0.96527 0.755954,-1.5119 1.486569,-5.94628 6.801834,-13.35458 12.095236,-15.11905 0.900936,-0.30031 9.893935,-0.27576 10.583334,0 1.813157,0.72526 3.415535,2.27336 5.291666,3.02381 2.177442,0.87098 4.707964,1.22005 6.803573,2.26786 2.936033,1.46801 5.496017,3.68054 8.31548,5.29166 0.69185,0.39535 1.58456,0.34598 2.26785,0.75596 3.77976,2.26785 0,0.75595 2.26786,2.26785 0.93764,0.6251 2.22697,0.71506 3.02381,1.51191 0.39842,0.39842 0.28713,1.19936 0.75595,1.5119 0.41933,0.27955 1.09258,-0.27955 1.51191,0 0.46882,0.31255 0.35753,1.11349 0.75595,1.51191 0.35927,0.35927 2.66453,1.15263 3.02381,1.5119 0.39842,0.39842 0.4434,1.04308 0.75595,1.51191 1.83517,2.75275 4.73747,4.97689 6.80357,7.55952 0.70398,0.87997 0.71506,2.22697 1.51191,3.02381 0.17818,0.17818 0.57777,-0.17818 0.75595,0 0.8909,0.8909 1.61963,1.94344 2.26786,3.02381 0.40997,0.68329 0.34598,1.58457 0.75595,2.26786 0.73338,1.2223 2.13334,1.91073 3.02381,3.02381 3.74819,4.68523 -0.0875,0.24678 2.26786,3.77976 0.75595,1.13393 1.5119,0.75595 2.26785,2.26785 0.22538,0.45077 -0.22538,1.06115 0,1.511918 0.81549,1.63097 2.5271,2.54885 3.02381,4.53571 0.12223,0.48892 -0.18717,1.04399 0,1.51191 0.27735,0.69336 2.74647,3.0864 3.02381,3.77976 0.28076,0.70188 -0.20768,1.54099 0,2.26786 1.398179,4.89364 5.291669,9.27492 5.291669,14.36309"
     id="path2" />
  <path
     style="fill:#000000;fill-opacity:0;fill-rule:nonzero;stroke:#2960b3;stroke-width:4.99999;stroke-dasharray:none;stroke-opacity:1"
     d="m 78.979681,116.89074 c 4.33102,5.89465 10.9778,8.42606 17.3869,11.33929 3.25688,1.4804 6.813439,3.02874 9.827379,4.53571 0.80635,0.40318 2.21746,-0.40317 3.02381,0 0.22538,0.11269 -0.17818,0.57777 0,0.75595 0.0756,0.0756 2.19226,0.0756 2.26786,0 0.37798,-0.37797 -0.37798,-1.88988 0,-2.26785 0.17818,-0.17818 0.57777,0.17818 0.75595,0 1.07097,-1.07097 0.96216,-5.70408 1.51191,-6.80357 0.64463,-1.28927 1.12343,-2.98184 1.5119,-4.53572 0.43021,-1.72083 -0.78112,-4.48538 0,-6.04762 0.15937,-0.31874 0.64326,-0.41788 0.75595,-0.75595 0.56263,-1.68786 -0.79231,-4.463 0,-6.04762 1.02121,-2.04241 0.75596,-4.34586 0.75596,-6.80357"
     id="path3" />
</svg>
